<?xml version="1.0" encoding="utf-8"?>
<!-- Generator: Adobe Illustrator 24.1.2, SVG Export Plug-In . SVG Version: 6.00 Build 0)  -->
<svg version="1.1" id="Layer_1" xmlns="http://www.w3.org/2000/svg" xmlns:xlink="http://www.w3.org/1999/xlink" x="0px" y="0px"
	 viewBox="0 0 94 79" style="enable-background:new 0 0 94 79;" xml:space="preserve">
<style type="text/css">
	.st0{fill:#FFFFFF;}
</style>
<desc>Created with Sketch.</desc>
<g id="Style-Guide">
	<g id="Style-Guide---Colors_x2C_-Icons_x2C_-Graphics" transform="translate(-141.000000, -3753.000000)">
		<g id="Icons_x2F_Shapes_x2F_TV-Upsell" transform="translate(141.000000, 3753.000000)">
			<g id="Upsell-Icon-1">
				<path id="Rectangle" class="st0" d="M23.3,12.6c-1.7,0-3.2,1.4-3.2,3.2v35.3c0,1.7,1.4,3.2,3.2,3.2h56.2c1.7,0,3.2-1.4,3.2-3.2
					V15.8c0-1.7-1.4-3.2-3.2-3.2H23.3z M23.3,7.9h56.2c4.4,0,7.9,3.5,7.9,7.9v35.3c0,4.4-3.5,7.9-7.9,7.9H23.3
					c-4.4,0-7.9-3.5-7.9-7.9V15.8C15.4,11.4,18.9,7.9,23.3,7.9z"/>
				<path id="Path" class="st0" d="M49.5,59c0-1.3,1.1-2.4,2.4-2.4c1.3,0,2.4,1.1,2.4,2.4v8.2c0,1.3-1.1,2.4-2.4,2.4
					c-1.3,0-2.4-1.1-2.4-2.4V59z"/>
				<path id="Path_1_" class="st0" d="M64.2,69.5l-24.7,0c-3.2,0-3.2-4.7,0-4.7l24.7,0C67.4,64.7,67.4,69.5,64.2,69.5z"/>
				<path id="Path_2_" class="st0" d="M66,34.6c-2.1-1-4.5-1.5-7.3-1.6c-4.7,0-9.3,0.2-15.3,3.1c-1.3,0.6-2.6,1.4-3.4,2.5
					c-1.7,2.1-0.8,4.6,1.2,5.6C45.4,43.6,62.8,36.9,66,34.6"/>
				<path id="Path_3_" class="st0" d="M58.5,31.8c2.4,0,4.5,0.4,6.4,1.1c-0.3-0.3-0.6-0.6-0.9-0.9c-2.9-2.8-7.7-7.4-13.9-8.2
					c-6.2-0.8-11.5,2.5-7.8,10c0.2,0.4,0.4,0.8,0.6,1.1c6-2.9,10.8-3.1,14.9-3.1C58.1,31.8,58.3,31.8,58.5,31.8"/>
			</g>
		</g>
	</g>
</g>
</svg>
